:FULLY-SPECIFIED
:FORCE-ALL-JOINTS-BE-3DOF
:DEGREES
510
root 5.92724 16.1739 -5.21864 -164.244 77.948 -169.2
lfemur -25.809 -14.9947 -22.4706
ltibia 55.1281 0 0
lfoot -26.6847 -3.96686 0
ltoes 7.06513 0 0
rfemur -56.4204 6.07972 3.96858
rtibia 59.9168 0 0
rfoot 10.2379 9.4252 0
rtoes -21.0663 0 0
lowerback 8.82365 0.180678 -0.346318
upperback 1.79889 0.486394 3.22025
thorax -3.11781 0.321608 3.48105
lowerneck -8.3155 -12.2851 -3.88689
upperneck 11.3025 -16.3746 2.86073
head 5.35328 -7.96717 0.260045
lclavicle -1.96892e-14 1.32523e-14 0
lhumerus -47.1056 -33.1403 116.978
lradius 57.4885 0 0
lwrist 8.36583 0 0
lhand 2.6282 -1.34743 0
lfingers 7.12502 0 0
lthumb 28.0704 26.2006 0
rclavicle -1.96892e-14 1.32523e-14 0
rhumerus -17.6155 39.065 -82.3581
rradius 113.449 0 0
rwrist -5.94277 0 0
rhand 2.20057 -13.8636 0
rfingers 7.12502 0 0
rthumb 27.6461 -761.295 0
511
root 5.98942 16.1236 -5.16354 -164.891 76.6857 -169.794
lfemur -26.0518 -14.4123 -22.4799
ltibia 56.2236 0 0
lfoot -26.9091 -3.43201 0
ltoes 6.16268 0 0
rfemur -55.8968 5.8667 3.41361
rtibia 58.8613 0 0
rfoot 10.439 9.49911 0
rtoes -22.053 0 0
lowerback 9.02734 0.229849 -0.207426
upperback 1.97257 0.595469 3.44351
thorax -3.05926 0.383215 3.62327
lowerneck -8.16869 -12.5134 -4.06065
upperneck 11.4177 -16.6822 2.99568
head 5.40694 -8.1127 0.298065
lclavicle -2.14901e-14 1.31198e-14 0
lhumerus -46.9045 -32.8089 116.826
lradius 57.675 0 0
lwrist 8.97162 0 0
lhand 1.4708 -1.70241 0
lfingers 7.12502 0 0
lthumb 26.9601 25.9819 0
rclavicle -2.14901e-14 1.31198e-14 0
rhumerus -15.5836 37.3464 -81.8987
rradius 114.901 0 0
rwrist -8.59154 0 0
rhand 0.760186 -14.3184 0
rfingers 7.12502 0 0
rthumb 26.2634 -761.905 0
512
root 6.05161 16.0732 -5.10844 -165.539 75.4235 -170.389
lfemur -26.2946 -13.8298 -22.4892
ltibia 57.3191 0 0
lfoot -27.1335 -2.89715 0
ltoes 5.26023 0 0
rfemur -55.3733 5.65369 2.85865
rtibia 57.8057 0 0
rfoot 10.6401 9.57301 0
rtoes -23.0397 0 0
lowerback 9.23102 0.27902 -0.0685333
upperback 2.14625 0.704543 3.66678
thorax -3.0007 0.444822 3.76549
lowerneck -8.02189 -12.7417 -4.23441
upperneck 11.533 -16.9898 3.13063
head 5.4606 -8.25823 0.336085
lclavicle -2.3291e-14 1.29872e-14 0
lhumerus -46.7035 -32.4775 116.674
lradius 57.8615 0 0
lwrist 9.57741 0 0
lhand 0.3134 -2.05738 0
lfingers 7.12502 0 0
lthumb 25.8498 25.7631 0
rclavicle -2.3291e-14 1.29872e-14 0
rhumerus -13.5518 35.6278 -81.4392
rradius 116.352 0 0
rwrist -11.2403 0 0
rhand -0.6802 -14.7732 0
rfingers 7.12502 0 0
rthumb 24.8808 -762.514 0
513
root 6.11379 16.0228 -5.05333 -166.187 74.1612 -170.983
lfemur -26.5375 -13.2474 -22.4984
ltibia 58.4147 0 0
lfoot -27.3579 -2.3623 0
ltoes 4.35777 0 0
rfemur -54.8498 5.44068 2.30368
rtibia 56.7501 0 0
rfoot 10.8411 9.64692 0
rtoes -24.0264 0 0
lowerback 9.4347 0.32819 0.070359
upperback 2.31993 0.813618 3.89004
thorax -2.94215 0.506429 3.90771
lowerneck -7.87508 -12.9701 -4.40817
upperneck 11.6482 -17.2974 3.26559
head 5.51425 -8.40375 0.374105
lclavicle -2.50919e-14 1.28547e-14 0
lhumerus -46.5024 -32.1461 116.522
lradius 58.048 0 0
lwrist 10.1832 0 0
lhand -0.844 -2.41236 0
lfingers 7.12502 0 0
lthumb 24.7396 25.5443 0
rclavicle -2.50919e-14 1.28547e-14 0
rhumerus -11.5199 33.9091 -80.9797
rradius 117.804 0 0
rwrist -13.8891 0 0
rhand -2.12059 -15.228 0
rfingers 7.12502 0 0
rthumb 23.4981 -763.124 0
